name rise37.2698peak67.6939fall79.5734.mot
datacolumns 19
datarows 22
range 6.246641 6.281649
endheader
time	ground_force1_vx	ground_force1_vy	ground_force1_vz	ground_force1_px	ground_force1_py	ground_force1_pz	ground_force2_vx	ground_force2_vy	ground_force2_vz	ground_force2_px	ground_force2_py	ground_force2_pz	ground_torque1_x	ground_torque1_y	ground_torque1_z	ground_torque2_x	ground_torque2_y	ground_torque2_z	
6.246641	-32.651023	797.916206	49.763211	0.120480	0.000000	0.119446	0.000000	0.000000	0.000000	0.000000	0.000000	0.000000	0.000000	21.448782	0.000000	0.000000	0.000000	0.000000	
6.248315	-33.032085	800.121854	50.024864	0.119574	0.000000	0.119407	0.000000	0.000000	0.000000	0.000000	0.000000	0.000000	0.000000	21.488720	0.000000	0.000000	0.000000	0.000000	
6.249981	-33.403269	802.312299	50.289490	0.118674	0.000000	0.119367	0.000000	0.000000	0.000000	0.000000	0.000000	0.000000	0.000000	21.524840	0.000000	0.000000	0.000000	0.000000	
6.251647	-33.764726	804.483504	50.556711	0.117779	0.000000	0.119329	0.000000	0.000000	0.000000	0.000000	0.000000	0.000000	0.000000	21.557146	0.000000	0.000000	0.000000	0.000000	
6.253314	-34.116634	806.631413	50.826129	0.116891	0.000000	0.119290	0.000000	0.000000	0.000000	0.000000	0.000000	0.000000	0.000000	21.585649	0.000000	0.000000	0.000000	0.000000	
6.254976	-34.459196	808.751962	51.097328	0.116010	0.000000	0.119252	0.000000	0.000000	0.000000	0.000000	0.000000	0.000000	0.000000	21.610369	0.000000	0.000000	0.000000	0.000000	
6.256646	-34.792637	810.841090	51.369873	0.115135	0.000000	0.119215	0.000000	0.000000	0.000000	0.000000	0.000000	0.000000	0.000000	21.631330	0.000000	0.000000	0.000000	0.000000	
6.258311	-35.117212	812.894745	51.643313	0.114267	0.000000	0.119178	0.000000	0.000000	0.000000	0.000000	0.000000	0.000000	0.000000	21.648568	0.000000	0.000000	0.000000	0.000000	
6.259974	-35.433196	814.908898	51.917177	0.113406	0.000000	0.119141	0.000000	0.000000	0.000000	0.000000	0.000000	0.000000	0.000000	21.662123	0.000000	0.000000	0.000000	0.000000	
6.261646	-35.740891	816.879550	52.190980	0.112553	0.000000	0.119105	0.000000	0.000000	0.000000	0.000000	0.000000	0.000000	0.000000	21.672044	0.000000	0.000000	0.000000	0.000000	
6.263310	-36.040626	818.802743	52.464223	0.111708	0.000000	0.119070	0.000000	0.000000	0.000000	0.000000	0.000000	0.000000	0.000000	21.678388	0.000000	0.000000	0.000000	0.000000	
6.264980	-36.332752	820.674568	52.736388	0.110870	0.000000	0.119036	0.000000	0.000000	0.000000	0.000000	0.000000	0.000000	0.000000	21.681217	0.000000	0.000000	0.000000	0.000000	
6.266644	-36.617643	822.491171	53.006948	0.110041	0.000000	0.119002	0.000000	0.000000	0.000000	0.000000	0.000000	0.000000	0.000000	21.680601	0.000000	0.000000	0.000000	0.000000	
6.268312	-36.895701	824.248766	53.275361	0.109219	0.000000	0.118969	0.000000	0.000000	0.000000	0.000000	0.000000	0.000000	0.000000	21.676618	0.000000	0.000000	0.000000	0.000000	
6.269981	-37.167348	825.943641	53.541073	0.108406	0.000000	0.118936	0.000000	0.000000	0.000000	0.000000	0.000000	0.000000	0.000000	21.669351	0.000000	0.000000	0.000000	0.000000	
6.271647	-37.433029	827.572164	53.803522	0.107601	0.000000	0.118905	0.000000	0.000000	0.000000	0.000000	0.000000	0.000000	0.000000	21.658891	0.000000	0.000000	0.000000	0.000000	
6.273310	-37.693213	829.130790	54.062134	0.106804	0.000000	0.118874	0.000000	0.000000	0.000000	0.000000	0.000000	0.000000	0.000000	21.645334	0.000000	0.000000	0.000000	0.000000	
6.274975	-37.948388	830.616071	54.316329	0.106016	0.000000	0.118844	0.000000	0.000000	0.000000	0.000000	0.000000	0.000000	0.000000	21.628783	0.000000	0.000000	0.000000	0.000000	
6.276646	-38.199064	832.024654	54.565519	0.105236	0.000000	0.118815	0.000000	0.000000	0.000000	0.000000	0.000000	0.000000	0.000000	21.609347	0.000000	0.000000	0.000000	0.000000	
6.278309	-38.445771	833.353298	54.809111	0.104465	0.000000	0.118786	0.000000	0.000000	0.000000	0.000000	0.000000	0.000000	0.000000	21.587141	0.000000	0.000000	0.000000	0.000000	
6.279976	-38.689055	834.598866	55.046508	0.103701	0.000000	0.118759	0.000000	0.000000	0.000000	0.000000	0.000000	0.000000	0.000000	21.562283	0.000000	0.000000	0.000000	0.000000	
6.281649	-38.929481	835.758338	55.277110	0.102946	0.000000	0.118732	0.000000	0.000000	0.000000	0.000000	0.000000	0.000000	0.000000	21.534899	0.000000	0.000000	0.000000	0.000000	
